<svg id="Capa_1" data-name="Capa 1" xmlns="http://www.w3.org/2000/svg" viewBox="0 0 1133.62 1133.62"><defs><style>.cls-1{fill:#fff;}</style></defs><path class="cls-1" d="M1037.62,622.42c-.47,114.94-34,211-101,292.8-37.8,46.15-82.56,87.37-128.12,126.21-49.15,41.89-107.25,47.65-167.72,24.44-9.34-3.59-18.65-7.31-27.76-11.44-26.69-12.09-52.45-11.49-79.68.44-22.71,9.94-46.78,18.84-71.12,22.59-45.94,7.08-89.56-4.07-124.64-34.82-61.73-54.1-122.76-109.85-162-183.46C90.21,699.26,88.14,540.42,191.11,387.11c44.34-66,105.62-111.55,186.28-125.92,36.06-6.42,71.05-.55,105.34,10.92,15.42,5.16,30.64,11,46.15,15.85,24.5,7.71,49.17,8.58,73.8.19,17.17-5.85,34.41-11.51,51.52-17.56,85.62-30.31,163.79-13.16,232.82,42C988.35,393.61,1035.1,502,1037.62,622.42ZM576,820c96.64-.9,175.59-80.39,174.93-176.13-.64-94.19-83.44-175.13-177.92-173.92-96,1.23-177.07,83.35-176.17,178.35C397.78,743.54,478.51,820.91,576,820Zm130-492.56c5.59,2.76,9.82,5.36,14.39,7,100.24,36.33,162.43,108.81,197.31,207.32,9.13,25.8,10.06,26.26,38.75,19.94C941.89,438,831.5,310.78,715.23,299,712.29,308.05,709.29,317.38,706.05,327.43Zm-11.4,30.85-9.4,28.19c42.17,14.57,78.28,36.08,108.25,67.18,30.32,31.47,52.48,67.93,65.68,109.6h32.71C866.75,454.34,779,372.46,694.65,358.28ZM826.27,562.52c-26.54-72.76-74.41-121.52-148.81-146-3.42,10.36-6.29,19.06-9.56,28.95,6.94,3.33,13,6.29,19.11,9.16,40.31,18.95,72.49,47.79,92.15,87.19C789.8,563.17,802.51,568,826.27,562.52Z"/><path class="cls-1" d="M553.71,257.93c-139.8-35.3-188.6-113.72-189-203.13C472.42,29.32,562.62,125.64,553.71,257.93Z"/><path class="cls-1" d="M580.85,262.48C562.36,109.32,656.9,55,738.9,50.55,762.79,142,710.86,224.91,580.85,262.48Z"/><path class="cls-1" d="M649.87,646.79c-.3,41.43-35.57,75.56-77.6,75.08-39.1-.45-73.42-37.1-73.08-78,.33-39.21,35.17-72.42,76-72.45C616.15,571.36,650.16,605.7,649.87,646.79Zm-52.4.46c-.27-14.37-10.24-24.33-22.86-23.73-13.73.66-22.09,8.15-23.1,22-.91,12.52,11.28,24.22,24.07,23C589,667.18,597.13,659.74,597.47,647.25Z"/></svg>