<svg xmlns="http://www.w3.org/2000/svg" viewBox="0 0 569.87 569.87"><defs><style>.cls-1{fill:#333;}</style></defs><g id="Capa_2" data-name="Capa 2"><path class="cls-1" d="M283.29,518.33C161.54,519,51.05,419.07,49.61,283.52,48,132.5,166.89,48.89,279.35,47.2,429.28,45,518.82,167.81,520.26,284.54,521.92,419.48,405.73,521.78,283.29,518.33Zm2.61-154.7c47.39-.4,83.88-37.47,83.44-84.77-.39-41.82-39.41-79.64-82.16-79.63-45.78,0-84.73,38.94-84.05,84C203.79,327.42,241.46,364,285.9,363.63ZM174.84,160.28l-1.61-1.91,13-17.36-27.4,13.2-1.45-1.94c7-8.81,14.05-17.61,22.4-28.1L142.14,146l-2.56-3.29,42.75-41.89c-47.5,9.06-111.71,97.11-101.91,140.7l23.74-49.07,2,1c-2,14.27-4,28.55-6.3,45.51L120,199.38c.73.37,1.45.75,2.17,1.13q-2.81,18.12-5.62,36.25l1.32,0q8.19-14,16.39-28l2.08,1q-2.09,15.28-4.16,30.57l1.36.16,16.09-27.9,1.67.92c-1,10.75-1.93,21.5-3.11,34.59l18.3-32,2.15,1c-1.35,10-2.69,20.11-4.38,32.81,7.12-9.45,12.45-16.51,17.77-23.56l1.56.92c-.85,6.8-1.69,13.6-2.7,21.69,10.77-13.89,19.32-27.5,30.43-38.52s24.78-19.42,37.33-29L248.5,180,208.44,192.8l-.84-1.49,25.55-22.6-.5-.94L194.93,182.5a36.57,36.57,0,0,1,9.39-13.06c3.86-3.58,8.23-6.61,12.37-9.89l-.79-1.18L184,170.77l-1.47-2L198.23,151ZM396,459.53c46.25-14.8,99.06-89.76,90.8-130-6.69,12.22-13.09,23.93-19.5,35.65l-1.6-1c1.12-10.26,2.24-20.52,3.67-33.68L454.88,357l-1.81-.88q1-12.31,2.06-24.64l-1.3-.28L442,354.4l-1.91-.94q.78-13.9,1.57-27.82l-1.31-.25L425.18,353.3V318.8l-16.67,28.95-1.64-.71q1.29-16,2.59-31.91l-1.7-.21-15.32,24.84-1.65-.92,3.09-24.34-2.78-1.34c-17.69,30-37.42,57.9-71.77,71.14l1.59,2.39,37.58-10.14c-5.37,6.62-9.42,11.59-15.15,18.64l26.27-12.64-6.74,15.66L383,388.38l1.88,1.86L371.79,412.1l27.75-15.79,1.85,2.34-13.75,23.14L414.79,406l2.77,2.61-16.68,25.78L430,415.62c.45,4-.15,6.7-1.74,8.47C417.2,436.48,405.89,448.68,396,459.53Z"/><path class="cls-1" d="M286.28,266.23a15.61,15.61,0,0,1,16,14.82A16.52,16.52,0,0,1,286.6,298.5c-8.54.32-15.85-7-16-16A15.7,15.7,0,0,1,286.28,266.23Z"/></g></svg>